<?xml version="1.0" encoding="UTF-8" standalone="no"?>
<!-- Created with Inkscape (http://www.inkscape.org/) -->

<svg
   xmlns:dc="http://purl.org/dc/elements/1.1/"
   xmlns:cc="http://creativecommons.org/ns#"
   xmlns:rdf="http://www.w3.org/1999/02/22-rdf-syntax-ns#"
   xmlns:svg="http://www.w3.org/2000/svg"
   xmlns="http://www.w3.org/2000/svg"
   xmlns:sodipodi="http://sodipodi.sourceforge.net/DTD/sodipodi-0.dtd"
   xmlns:inkscape="http://www.inkscape.org/namespaces/inkscape"
   width="250.94757mm"
   height="308.05023mm"
   viewBox="0 0 250.94757 308.05023"
   version="1.1"
   id="svg1260"
   sodipodi:docname="substraTEE-logo-scs.svg"
   inkscape:version="0.92.3 (2405546, 2018-03-11)">
  <sodipodi:namedview
     id="base"
     pagecolor="#ffffff"
     bordercolor="#666666"
     borderopacity="1.0"
     inkscape:pageopacity="0"
     inkscape:pageshadow="2"
     inkscape:zoom="2.8"
     inkscape:cx="452.50176"
     inkscape:cy="122.12066"
     inkscape:document-units="mm"
     inkscape:current-layer="layer1"
     showgrid="true"
     objecttolerance="10000"
     fit-margin-top="5"
     fit-margin-left="5"
     fit-margin-right="5"
     fit-margin-bottom="5"
     inkscape:window-width="1280"
     inkscape:window-height="934"
     inkscape:window-x="0"
     inkscape:window-y="31"
     inkscape:window-maximized="1">
    <inkscape:grid
       dotted="false"
       originy="53.06793"
       originx="-54.529835"
       spacingy="10"
       spacingx="10"
       units="cm"
       id="grid1805"
       type="xygrid" />
  </sodipodi:namedview>
  <defs
     id="defs1254" />
  <metadata
     id="metadata1257">
    <rdf:RDF>
      <cc:Work
         rdf:about="">
        <dc:format>image/svg+xml</dc:format>
        <dc:type
           rdf:resource="http://purl.org/dc/dcmitype/StillImage" />
        <dc:title />
      </cc:Work>
    </rdf:RDF>
  </metadata>
  <g
     transform="translate(-54.529828,-42.017678)"
     id="layer1"
     inkscape:groupmode="layer"
     inkscape:label="Layer 1">
    <path
       d="m 264.98317,176.63282 c -5.22147,-1.76315 -8.21975,-6.44825 -6.99805,-11.82224 1.2217,-5.37399 5.89816,-8.30339 11.36934,-7.64127 5.47119,0.66212 9.33449,6.6377 8.14355,12.01859 -1.19094,5.3809 -7.16497,9.18421 -12.40627,7.48089 m -21.38512,33.90258 c -3.80881,-3.98319 -4.63278,-9.26598 -1.24524,-13.61311 3.38753,-4.34712 8.97107,-4.97024 13.63071,-2.02737 4.65965,2.94287 5.54114,9.90793 2.17853,14.27435 -3.36262,4.36643 -10.63036,5.38771 -14.48449,1.44834 m -33.97299,21.26583 c -1.77807,-5.21641 0.0626,-10.60931 5.07314,-12.90428 5.01056,-2.29497 9.86063,-0.42509 12.86981,4.19201 3.00919,4.6171 0.50714,11.64203 -4.49021,13.96562 -4.99735,2.3236 -11.5776,0.0504 -13.41522,-5.14531 m -39.83696,4.40437 c 0.67778,-5.46927 4.66268,-9.54275 10.17273,-9.4352 5.51004,0.10754 9.03556,3.92724 9.77583,9.38839 0.74028,5.46116 -4.59832,10.68265 -10.10889,10.60662 -5.51057,-0.076 -10.46826,-4.96957 -9.85308,-10.44623 M 132.2005,223.24172 c 2.95619,-4.65121 8.31375,-6.55764 13.23544,-4.0778 4.92169,2.47985 6.4686,7.46508 4.7503,12.70149 -1.7183,5.2364 -8.76186,7.63488 -13.69765,5.18323 -4.9358,-2.45165 -7.25168,-9.02532 -4.34888,-13.71004 m -28.29389,-28.38907 c 4.6257,-2.99596 10.17624,-2.40473 13.61326,1.90338 3.43703,4.3081 2.82034,9.81668 -1.13004,13.65952 -3.95038,3.84284 -11.00518,3.14523 -14.46678,-1.14315 -3.461612,-4.28837 -2.703195,-11.30835 1.88793,-14.35702 M 90.578428,157.15994 c 5.463253,-0.72464 10.120902,2.16312 11.403972,7.52279 1.28308,5.35967 -1.7129,10.09087 -6.913866,11.91362 -5.200969,1.82275 -11.207348,-1.84996 -12.521055,-7.20221 -1.313708,-5.35225 2.463051,-11.43142 7.91766,-12.21851 m 4.550954,-39.8272 c 5.231467,1.73328 8.205617,6.38707 7.014647,11.76796 -1.19096,5.38089 -5.903122,8.32792 -11.377998,7.69708 -5.474878,-0.63084 -9.319753,-6.57519 -8.159585,-11.9628 1.160167,-5.38761 7.163214,-9.21092 12.414165,-7.53759 M 116.31336,83.423938 c 3.83152,3.961361 4.62908,9.188658 1.26645,13.555074 -3.36263,4.366418 -8.98423,4.992208 -13.66063,2.07602 -4.676391,-2.916186 -5.555961,-9.846861 -2.21836,-14.232439 3.33761,-4.385579 10.65597,-5.397684 14.53255,-1.480406 M 150.2044,62.077833 c 1.80786,5.206164 -0.0214,10.561097 -5.01881,12.884674 -4.99736,2.323575 -9.89537,0.413889 -12.9309,-4.185932 -3.03553,-4.599823 -0.53634,-11.571387 4.44765,-13.923509 4.98399,-2.352122 11.59664,-0.0682 13.46393,5.116942 m 39.83689,-4.395107 c -0.6465,5.473051 -4.60446,9.515702 -10.11503,9.439654 -5.51057,-0.07605 -9.06261,-3.955837 -9.83409,-9.412671 -0.77148,-5.456837 4.54193,-10.628447 10.05285,-10.58392 5.51092,0.04453 10.49289,4.963193 9.90903,10.443282 m 37.79752,13.30775 c -2.92956,4.66803 -8.25096,6.560294 -13.18675,4.108622 -4.93579,-2.451671 -6.48147,-7.500128 -4.79313,-12.746266 1.68834,-5.246141 8.68838,-7.612702 13.63811,-5.189301 4.94973,2.423402 7.27798,9.028489 4.40201,13.729724 m 28.29685,28.38892 c -4.60849,3.022355 -10.12112,2.432915 -13.58271,-1.855471 -3.46159,-4.288385 -2.83842,-9.833979 1.08993,-13.699335 3.92835,-3.865356 10.94904,-3.174505 14.4351,1.094014 3.48607,4.268519 2.72658,11.322654 -1.84704,14.397523 m 13.16597,37.858854 c -5.49016,0.47987 -10.07756,-2.11553 -11.39125,-7.46778 -1.31369,-5.35225 1.70581,-10.11546 6.89627,-11.96791 5.19046,-1.85244 11.16713,1.80084 12.51141,7.14549 1.34428,5.34465 -2.41823,11.73695 -7.90255,12.27959"
       id="path1820-17-7-94"
       style="opacity:0.8;fill:#393939;fill-opacity:1;stroke:#000000;stroke-width:0;stroke-linejoin:miter;stroke-miterlimit:4.4000001;stroke-dasharray:none;stroke-opacity:1"
       inkscape:connector-curvature="0" />
    <path
       sodipodi:open="true"
       d="m 200.0013,127.23009 a 20.000326,20.115713 0 0 1 -19.94313,20.11563 20.000326,20.115713 0 0 1 -20.05719,-20.00058 20.000326,20.115713 0 0 1 19.82841,-20.23003 20.000326,20.115713 0 0 1 20.1706,19.88488"
       sodipodi:end="6.2717462"
       sodipodi:start="0"
       sodipodi:ry="20.115713"
       sodipodi:rx="20.000326"
       sodipodi:cy="127.23009"
       sodipodi:cx="180.00098"
       sodipodi:type="arc"
       id="path1820-17-7-88-4"
       style="opacity:0.8;fill:#ed1c24;fill-opacity:1;stroke:#000000;stroke-width:0;stroke-linejoin:miter;stroke-miterlimit:4.4000001;stroke-dasharray:none;stroke-opacity:1" />
    <path
       sodipodi:open="true"
       d="m 190.00066,157.11436 a 10,10 0 0 1 -9.97141,9.99996 10,10 0 0 1 -10.02843,-9.94276 10,10 0 0 1 9.91404,-10.05683 A 10,10 0 0 1 190,156.99998"
       sodipodi:end="6.2717462"
       sodipodi:start="0"
       sodipodi:ry="10"
       sodipodi:rx="10"
       sodipodi:cy="157.11436"
       sodipodi:cx="180.00066"
       sodipodi:type="arc"
       id="path1820-17-7-88-1"
       style="opacity:0.8;fill:#ed1c24;fill-opacity:1;stroke:#000000;stroke-width:0;stroke-linejoin:miter;stroke-miterlimit:4.4000001;stroke-dasharray:none;stroke-opacity:1" />
    <path
       sodipodi:open="true"
       d="m 190.00066,177.11438 a 10,10 0 0 1 -9.97141,9.99996 10,10 0 0 1 -10.02843,-9.94276 10,10 0 0 1 9.91404,-10.05683 A 10,10 0 0 1 190,176.99999"
       sodipodi:end="6.2717462"
       sodipodi:start="0"
       sodipodi:ry="10"
       sodipodi:rx="10"
       sodipodi:cy="177.11438"
       sodipodi:cx="180.00066"
       sodipodi:type="arc"
       id="path1820-17-7-88-5"
       style="opacity:0.8;fill:#ed1c24;fill-opacity:1;stroke:#000000;stroke-width:0;stroke-linejoin:miter;stroke-miterlimit:4.4000001;stroke-dasharray:none;stroke-opacity:1" />
    <text
       xml:space="preserve"
       style="font-style:normal;font-variant:normal;font-weight:normal;font-stretch:normal;font-size:5.29166651px;line-height:125%;font-family:Sans;-inkscape-font-specification:Sans;text-align:center;letter-spacing:0px;word-spacing:0px;writing-mode:lr-tb;text-anchor:middle;fill:#3a3a3a;fill-opacity:0.8;stroke:none;stroke-width:0.26458332px;stroke-linecap:butt;stroke-linejoin:miter;stroke-opacity:1"
       x="179.63968"
       y="297.31247"
       id="text2325"><tspan
         sodipodi:role="line"
         id="tspan2323"
         x="179.63968"
         y="297.31247"
         style="font-style:normal;font-variant:normal;font-weight:bold;font-stretch:normal;font-size:50.79999924px;font-family:'Blogger Sans';-inkscape-font-specification:'Blogger Sans, Bold';font-variant-ligatures:normal;font-variant-caps:normal;font-variant-numeric:normal;font-feature-settings:normal;text-align:center;writing-mode:lr-tb;text-anchor:middle;fill:#3a3a3a;fill-opacity:0.8;stroke-width:0.26458332px">substraTEE</tspan></text>
    <g
       id="g2626"
       transform="matrix(4.8624276,0,0,4.8624276,-587.65749,-1281.3985)">
      <path
         d="m 154.3204,331.58912 c 0,1.60609 -1.30196,2.90767 -2.90834,2.90767 -1.6061,0 -2.90766,-1.30158 -2.90766,-2.90767 0,-1.60609 1.30156,-2.90834 2.90766,-2.90834 1.60638,0 2.90834,1.30225 2.90834,2.90834"
         style="fill:#ed1c24;fill-opacity:1;fill-rule:nonzero;stroke:none;stroke-width:0.03527778"
         id="path2476"
         inkscape:connector-curvature="0" />
      <path
         d="m 150.37772,333.01208 -0.0502,-0.024 v -0.89945 l 0.13917,0.0972 c 0.17184,0.12015 0.34728,0.21731 0.52561,0.29213 v 0 c 0.17843,0.0739 0.3248,0.10873 0.43282,0.10873 v 0 c 0.11659,-6.7e-4 0.20948,-0.0282 0.28759,-0.0811 v 0 c 0.0791,-0.0567 0.1017,-0.10156 0.10308,-0.15822 v 0 c -6.7e-4,-0.0725 -0.0209,-0.121 -0.0653,-0.16662 v 0 c -0.047,-0.0479 -0.17696,-0.13695 -0.37455,-0.24955 v 0 c -0.40901,-0.22818 -0.67938,-0.42111 -0.82063,-0.59944 v 0 c -0.13642,-0.17255 -0.2074,-0.3682 -0.20683,-0.5763 v 0 c -0.001,-0.26663 0.10872,-0.49735 0.31679,-0.66407 v 0 c 0.2074,-0.1688 0.47417,-0.25149 0.7874,-0.25079 v 0 c 0.32703,0 0.66023,0.0922 0.99607,0.27199 v 0 l 0.0463,0.0247 v 0.82984 l -0.13339,-0.0812 c -0.36463,-0.22101 -0.65899,-0.32547 -0.86776,-0.32466 v 0 c -0.1094,0 -0.18849,0.0231 -0.24434,0.0616 v 0 c -0.0551,0.0407 -0.0717,0.0747 -0.0738,0.13342 v 0 c 6.7e-4,0.0449 0.0187,0.0907 0.0754,0.14714 v 0 c 0.0558,0.0558 0.17046,0.13547 0.33793,0.22754 v 0 l 0.2239,0.1276 c 0.5387,0.30304 0.83662,0.65758 0.83732,1.06853 v 0 c 0.001,0.28289 -0.11521,0.52709 -0.33708,0.70679 v 0 c -0.2202,0.18052 -0.50299,0.2697 -0.83552,0.2697 v 0 c -0.001,0 -0.003,0 -0.004,0 v 0 c -0.19498,0 -0.37056,-0.0203 -0.52656,-0.0637 v 0 c -0.15487,-0.042 -0.34424,-0.11825 -0.56952,-0.22779 v 0"
         style="fill:#ffffff;fill-opacity:1;fill-rule:nonzero;stroke:none;stroke-width:0.03527778"
         id="path2478"
         inkscape:connector-curvature="0" />
      <path
         d="m 167.2478,331.58912 c 0,1.60609 -1.302,2.90767 -2.90795,2.90767 -1.60609,0 -2.90833,-1.30158 -2.90833,-2.90767 0,-1.60609 1.30224,-2.90834 2.90833,-2.90834 1.60595,0 2.90795,1.30225 2.90795,2.90834"
         style="fill:#ed1c24;fill-opacity:1;fill-rule:nonzero;stroke:none;stroke-width:0.03527778"
         id="path2480"
         inkscape:connector-curvature="0" />
      <path
         d="m 163.25506,332.9881 v -0.89945 l 0.1385,0.0972 c 0.17237,0.12015 0.34713,0.21731 0.52628,0.29213 v 0 c 0.17829,0.0739 0.32466,0.10873 0.43268,0.10873 v 0 c 0.11687,-6.7e-4 0.20962,-0.0282 0.2879,-0.0811 v 0 c 0.0791,-0.0567 0.10142,-0.10156 0.1029,-0.15822 v 0 c -6.7e-4,-0.0725 -0.0209,-0.121 -0.066,-0.16662 v 0 c -0.0464,-0.0479 -0.17611,-0.13695 -0.37483,-0.24955 v 0 c -0.40883,-0.22818 -0.67909,-0.42111 -0.82045,-0.59944 v 0 c -0.13561,-0.17255 -0.20659,-0.3682 -0.20659,-0.5763 v 0 c -0.002,-0.26663 0.10859,-0.49735 0.31683,-0.66407 v 0 c 0.20793,-0.1688 0.47473,-0.25149 0.78782,-0.25079 v 0 c 0.32685,0 0.6598,0.0922 0.99618,0.27199 v 0 l 0.0463,0.0247 v 0.82984 l -0.13419,-0.0812 c -0.36449,-0.22101 -0.65885,-0.32547 -0.86696,-0.32466 v 0 c -0.1101,0 -0.18834,0.0231 -0.24415,0.0616 v 0 c -0.0553,0.0407 -0.0726,0.0747 -0.074,0.13342 v 0 c 0,0.0449 0.0187,0.0907 0.0754,0.14714 v 0 c 0.0558,0.0558 0.17032,0.13547 0.33775,0.22754 v 0 l 0.22338,0.1276 c 0.53936,0.30304 0.83647,0.65758 0.83799,1.06853 v 0 c 0.001,0.28289 -0.11603,0.52709 -0.33708,0.70679 v 0 c -0.22034,0.18052 -0.50366,0.2697 -0.83548,0.2697 v 0 c -0.001,0 -0.003,0 -0.004,0 v 0 c -0.19484,0 -0.37027,-0.0203 -0.5268,-0.0637 v 0 c -0.15533,-0.042 -0.34368,-0.11825 -0.56984,-0.22779 v 0"
         style="fill:#ffffff;fill-opacity:1;fill-rule:nonzero;stroke:none;stroke-width:0.03527778"
         id="path2482"
         inkscape:connector-curvature="0" />
      <path
         d="m 160.78424,331.58912 c 0,1.60609 -1.30224,2.90767 -2.90834,2.90767 -1.60612,0 -2.90837,-1.30158 -2.90837,-2.90767 0,-1.60609 1.30225,-2.90834 2.90837,-2.90834 1.6061,0 2.90834,1.30225 2.90834,2.90834"
         style="fill:#ed1c24;fill-opacity:1;fill-rule:nonzero;stroke:none;stroke-width:0.03527778"
         id="path2484"
         inkscape:connector-curvature="0" />
      <path
         d="m 156.75404,332.83749 c -0.31475,-0.31185 -0.4698,-0.73367 -0.46909,-1.2441 v 0 c -7.1e-4,-0.51537 0.15074,-0.94298 0.45462,-1.2664 v 0 c 0.303,-0.32399 0.71036,-0.48715 1.19751,-0.4855 v 0 c 0.1688,0 0.32177,0.0152 0.46027,0.0485 v 0 c 0.13709,0.0325 0.30233,0.0928 0.49593,0.179 v 0 l 0.0514,0.0231 v 0.88664 l -0.13543,-0.0862 c -0.30745,-0.1965 -0.58512,-0.29009 -0.83443,-0.29009 v 0 c -0.26183,0.002 -0.4633,0.0885 -0.63087,0.26984 v 0 c -0.16506,0.18189 -0.24857,0.40954 -0.24913,0.70015 v 0 c 0.001,0.30664 0.0912,0.53566 0.26815,0.70831 v 0 c 0.17818,0.17254 0.41592,0.26032 0.733,0.26102 v 0 c 0.2238,0 0.48919,-0.0653 0.79375,-0.20232 v 0 l 0.1247,-0.0558 v 0.81774 l -0.0581,0.021 c -0.32262,0.1203 -0.64164,0.18189 -0.95391,0.18122 v 0 c -0.002,0 -0.005,0 -0.007,0 v 0 c -0.5093,0 -0.93031,-0.15586 -1.24117,-0.46606 v 0"
         style="fill:#ffffff;fill-opacity:1;fill-rule:nonzero;stroke:none;stroke-width:0.03527778"
         id="path2486"
         inkscape:connector-curvature="0" />
    </g>
    <text
       xml:space="preserve"
       style="font-style:normal;font-variant:normal;font-weight:normal;font-stretch:normal;font-size:5.29166651px;line-height:125%;font-family:Sans;-inkscape-font-specification:Sans;text-align:center;letter-spacing:0px;word-spacing:0px;writing-mode:lr-tb;text-anchor:middle;fill:#3a3a3a;fill-opacity:0.8;stroke:none;stroke-width:0.26458332px;stroke-linecap:butt;stroke-linejoin:miter;stroke-opacity:1"
       x="179.73047"
       y="310.74173"
       id="text2649"><tspan
         sodipodi:role="line"
         id="tspan2647"
         x="179.73047"
         y="310.74173"
         style="font-style:normal;font-variant:normal;font-weight:bold;font-stretch:normal;font-size:11.28888893px;font-family:'Blogger Sans';-inkscape-font-specification:'Blogger Sans, Bold';font-variant-ligatures:normal;font-variant-caps:normal;font-variant-numeric:normal;font-feature-settings:normal;text-align:center;writing-mode:lr-tb;text-anchor:middle;fill:#3a3a3a;fill-opacity:0.8;stroke-width:0.26458332px">by</tspan></text>
  </g>
</svg>
